<svg width="32" height="32" viewBox="0 0 32 32" fill="none" xmlns="http://www.w3.org/2000/svg">
<path fill-rule="evenodd" clip-rule="evenodd" d="M19.6688 8.4687C19.9689 8.16875 20.3757 8.00024 20.8 8.00024C21.2243 8.00024 21.6312 8.16875 21.9312 8.4687L28.3312 14.8687C28.6312 15.1687 28.7997 15.5756 28.7997 15.9999C28.7997 16.4242 28.6312 16.8311 28.3312 17.1311L21.9312 23.5311C21.6294 23.8226 21.2253 23.9838 20.8058 23.9802C20.3863 23.9765 19.985 23.8083 19.6883 23.5116C19.3916 23.215 19.2234 22.8137 19.2197 22.3941C19.2161 21.9746 19.3774 21.5705 19.6688 21.2687L23.3376 17.5999H4.80001C4.37567 17.5999 3.9687 17.4313 3.66864 17.1313C3.36858 16.8312 3.20001 16.4242 3.20001 15.9999C3.20001 15.5756 3.36858 15.1686 3.66864 14.8685C3.9687 14.5685 4.37567 14.3999 4.80001 14.3999H23.3376L19.6688 10.7311C19.3689 10.4311 19.2004 10.0242 19.2004 9.5999C19.2004 9.17564 19.3689 8.76875 19.6688 8.4687Z" fill="#6B7180"/>
</svg>
