<svg width="32" height="32" viewBox="0 0 32 32" fill="none" xmlns="http://www.w3.org/2000/svg">
<path fill-rule="evenodd" clip-rule="evenodd" d="M12.3312 23.5313C12.0311 23.8313 11.6242 23.9998 11.2 23.9998C10.7757 23.9998 10.3688 23.8313 10.0688 23.5313L3.66878 17.1313C3.36882 16.8313 3.20032 16.4244 3.20032 16.0001C3.20032 15.5759 3.36882 15.169 3.66878 14.8689L10.0688 8.46891C10.3705 8.17746 10.7747 8.01619 11.1942 8.01984C11.6137 8.02348 12.015 8.19175 12.3117 8.48841C12.6083 8.78506 12.7766 9.18636 12.7803 9.60587C12.7839 10.0254 12.6226 10.4296 12.3312 10.7313L8.66238 14.4001H27.2C27.6243 14.4001 28.0313 14.5687 28.3313 14.8687C28.6314 15.1688 28.8 15.5758 28.8 16.0001C28.8 16.4245 28.6314 16.8314 28.3313 17.1315C28.0313 17.4315 27.6243 17.6001 27.2 17.6001H8.66238L12.3312 21.2689C12.6311 21.569 12.7996 21.9759 12.7996 22.4001C12.7996 22.8244 12.6311 23.2313 12.3312 23.5313Z" fill="#6B7180"/>
</svg>
