<svg width="17" height="17" viewBox="0 0 17 17" fill="none" xmlns="http://www.w3.org/2000/svg">
<g clip-path="url(#clip0_2005_3)">
<path fill-rule="evenodd" clip-rule="evenodd" d="M8.85161 10.9713C8.72659 11.0963 8.55705 11.1665 8.38027 11.1665C8.2035 11.1665 8.03396 11.0963 7.90894 10.9713L4.13761 7.19999C4.07393 7.1385 4.02315 7.06493 3.98821 6.9836C3.95327 6.90226 3.93488 6.81478 3.93411 6.72626C3.93334 6.63774 3.95021 6.54996 3.98373 6.46803C4.01725 6.38609 4.06675 6.31166 4.12934 6.24906C4.19194 6.18647 4.26637 6.13697 4.3483 6.10345C4.43024 6.06993 4.51802 6.05306 4.60654 6.05383C4.69506 6.0546 4.78254 6.07299 4.86388 6.10793C4.94521 6.14287 5.01878 6.19365 5.08027 6.25733L8.38027 9.55733L11.6803 6.25733C11.806 6.13589 11.9744 6.06869 12.1492 6.07021C12.324 6.07173 12.4912 6.14184 12.6148 6.26545C12.7384 6.38905 12.8085 6.55626 12.8101 6.73106C12.8116 6.90586 12.7444 7.07426 12.6229 7.19999L8.85161 10.9713Z" fill="white"/>
</g>
<defs>
<clipPath id="clip0_2005_3">
<rect width="16" height="16" fill="white" transform="translate(0.38028 0.5)"/>
</clipPath>
</defs>
</svg>
