<svg width="48" height="48" viewBox="0 0 48 48" fill="none" xmlns="http://www.w3.org/2000/svg">
<path fill-rule="evenodd" clip-rule="evenodd" d="M24 43.2001C29.0922 43.2001 33.9758 41.1772 37.5765 37.5765C41.1772 33.9758 43.2001 29.0922 43.2001 24C43.2001 18.9079 41.1772 14.0243 37.5765 10.4236C33.9758 6.8229 29.0922 4.80005 24 4.80005C18.9079 4.80005 14.0243 6.8229 10.4236 10.4236C6.8229 14.0243 4.80005 18.9079 4.80005 24C4.80005 29.0922 6.8229 33.9758 10.4236 37.5765C14.0243 41.1772 18.9079 43.2001 24 43.2001V43.2001ZM10.3968 19.2649C11.2879 16.713 12.8779 14.4627 14.9856 12.7704C15.6288 13.752 16.7376 14.4 18 14.4C18.9548 14.4 19.8705 14.7793 20.5456 15.4545C21.2208 16.1296 21.6 17.0453 21.6 18V19.2C21.6 20.4731 22.1058 21.694 23.0059 22.5942C23.9061 23.4943 25.127 24 26.4 24C27.6731 24 28.894 23.4943 29.7942 22.5942C30.6943 21.694 31.2 20.4731 31.2 19.2C31.1997 18.1259 31.5596 17.0826 32.2223 16.2372C32.885 15.3917 33.8121 14.793 34.8552 14.5368C37.1456 17.1569 38.4054 20.5201 38.4001 24C38.4001 24.816 38.3328 25.62 38.2008 26.4H36.0001C34.727 26.4 33.5061 26.9058 32.6059 27.8059C31.7058 28.7061 31.2 29.927 31.2 31.2V36.4728C29.012 37.7389 26.528 38.4037 24 38.4001V33.6C24 32.327 23.4943 31.1061 22.5942 30.2059C21.694 29.3058 20.4731 28.8 19.2 28.8C17.927 28.8 16.7061 28.2943 15.8059 27.3942C14.9058 26.494 14.4 25.2731 14.4 24C14.4005 22.8648 13.9985 21.7662 13.2656 20.8993C12.5327 20.0324 11.5163 19.4533 10.3968 19.2649V19.2649Z" fill="#F60C01"/>
</svg>
