<svg width="23" height="22" viewBox="0 0 23 22" fill="none" xmlns="http://www.w3.org/2000/svg">
<path fill-rule="evenodd" clip-rule="evenodd" d="M6.965 0.066C8.138 0.012 8.512 0 11.5 0C14.488 0 14.862 0.013 16.034 0.066C17.206 0.119 18.006 0.306 18.706 0.577C19.439 0.854 20.104 1.287 20.654 1.847C21.214 2.396 21.646 3.06 21.922 3.794C22.194 4.494 22.38 5.294 22.434 6.464C22.488 7.639 22.5 8.013 22.5 11C22.5 13.988 22.487 14.362 22.434 15.535C22.381 16.705 22.194 17.505 21.922 18.205C21.646 18.9391 21.2133 19.6042 20.654 20.154C20.104 20.714 19.439 21.146 18.706 21.422C18.006 21.694 17.206 21.88 16.036 21.934C14.862 21.988 14.488 22 11.5 22C8.512 22 8.138 21.987 6.965 21.934C5.795 21.881 4.995 21.694 4.295 21.422C3.56092 21.146 2.89582 20.7133 2.346 20.154C1.78638 19.6047 1.35331 18.9399 1.077 18.206C0.806 17.506 0.62 16.706 0.566 15.536C0.512 14.361 0.5 13.987 0.5 11C0.5 8.012 0.513 7.638 0.566 6.466C0.619 5.294 0.806 4.494 1.077 3.794C1.35372 3.06008 1.78712 2.39531 2.347 1.846C2.89604 1.2865 3.56047 0.853443 4.294 0.577C4.994 0.306 5.795 0.12 6.965 0.066ZM15.944 2.046C14.784 1.993 14.436 1.982 11.499 1.982C8.562 1.982 8.214 1.993 7.054 2.046C5.981 2.095 5.399 2.274 5.011 2.425C4.498 2.625 4.131 2.862 3.746 3.247C3.38104 3.60205 3.10018 4.03428 2.924 4.512C2.773 4.9 2.594 5.482 2.545 6.555C2.492 7.715 2.481 8.063 2.481 11C2.481 13.937 2.492 14.285 2.545 15.445C2.594 16.518 2.773 17.1 2.924 17.488C3.1 17.965 3.381 18.398 3.746 18.753C4.101 19.118 4.534 19.399 5.011 19.575C5.399 19.726 5.981 19.905 7.054 19.954C8.214 20.007 8.561 20.018 11.499 20.018C14.437 20.018 14.784 20.007 15.944 19.954C17.017 19.905 17.599 19.726 17.987 19.575C18.5 19.375 18.867 19.138 19.252 18.753C19.617 18.398 19.898 17.965 20.074 17.488C20.225 17.1 20.404 16.518 20.453 15.445C20.506 14.285 20.517 13.937 20.517 11C20.517 8.063 20.506 7.715 20.453 6.555C20.404 5.482 20.225 4.9 20.074 4.512C19.874 3.999 19.637 3.632 19.252 3.247C18.8969 2.88207 18.4647 2.60121 17.987 2.425C17.599 2.274 17.017 2.095 15.944 2.046ZM10.094 14.391C10.8787 14.7176 11.7524 14.7617 12.5659 14.5157C13.3795 14.2697 14.0824 13.7489 14.5546 13.0422C15.0268 12.3356 15.2391 11.4869 15.155 10.6411C15.071 9.79534 14.696 9.00497 14.094 8.405C13.7102 8.02148 13.2462 7.72781 12.7353 7.54515C12.2245 7.36248 11.6794 7.29536 11.1395 7.34862C10.5996 7.40187 10.0782 7.57418 9.6128 7.85313C9.14746 8.13208 8.74974 8.51074 8.4483 8.96185C8.14686 9.41296 7.94919 9.92529 7.86952 10.462C7.78984 10.9986 7.83015 11.5463 7.98754 12.0655C8.14493 12.5847 8.41548 13.0626 8.77972 13.4647C9.14396 13.8668 9.59282 14.1832 10.094 14.391ZM7.502 7.002C8.02702 6.47697 8.65032 6.0605 9.3363 5.77636C10.0223 5.49222 10.7575 5.34597 11.5 5.34597C12.2425 5.34597 12.9777 5.49222 13.6637 5.77636C14.3497 6.0605 14.973 6.47697 15.498 7.002C16.023 7.52702 16.4395 8.15032 16.7236 8.8363C17.0078 9.52228 17.154 10.2575 17.154 11C17.154 11.7425 17.0078 12.4777 16.7236 13.1637C16.4395 13.8497 16.023 14.473 15.498 14.998C14.4377 16.0583 12.9995 16.654 11.5 16.654C10.0005 16.654 8.56234 16.0583 7.502 14.998C6.44166 13.9377 5.84597 12.4995 5.84597 11C5.84597 9.50046 6.44166 8.06234 7.502 7.002ZM18.408 6.188C18.5381 6.06527 18.6423 5.91768 18.7143 5.75397C18.7863 5.59027 18.8248 5.41377 18.8274 5.23493C18.83 5.05609 18.7967 4.87855 18.7295 4.71281C18.6622 4.54707 18.5624 4.39651 18.436 4.27004C18.3095 4.14357 18.1589 4.04376 17.9932 3.97652C17.8275 3.90928 17.6499 3.87598 17.4711 3.87858C17.2922 3.88119 17.1157 3.91965 16.952 3.9917C16.7883 4.06374 16.6407 4.1679 16.518 4.298C16.2793 4.55103 16.1486 4.88712 16.1537 5.23493C16.1588 5.58274 16.2992 5.91488 16.5452 6.16084C16.7911 6.40681 17.1233 6.54723 17.4711 6.5523C17.8189 6.55737 18.155 6.42669 18.408 6.188Z" fill="#A1A3A8"/>
</svg>
