<svg width="48" height="48" viewBox="0 0 48 48" fill="none" xmlns="http://www.w3.org/2000/svg">
<path d="M22 35C22 32.422 22.7504 30.0194 24.0446 27.9984H10.5056C8.02151 27.9984 6.00781 30.0122 6.00781 32.4962V34.3362C6.00781 35.4802 6.36461 36.596 7.02853 37.5278C10.1129 41.8564 15.1588 44.0008 22.0008 44.0008C23.2004 44.0008 24.345 43.9348 25.4336 43.8028C23.3018 41.4872 22 38.3956 22 35ZM22.0008 4.00781C27.5236 4.00781 32.0008 8.48495 32.0008 14.0078C32.0008 19.5307 27.5236 24.0078 22.0008 24.0078C16.4779 24.0078 12.0007 19.5307 12.0007 14.0078C12.0007 8.48495 16.4779 4.00781 22.0008 4.00781ZM46 35C46 41.0752 41.0752 46 35 46C28.9248 46 24 41.0752 24 35C24 28.9248 28.9248 24 35 24C41.0752 24 46 28.9248 46 35ZM36.1108 28.8412C35.7612 27.7196 34.2388 27.7196 33.8892 28.8412L32.7752 32.4154H29.1702C28.0388 32.4154 27.5684 33.9246 28.4836 34.6178L31.4002 36.8268L30.2862 40.4008C29.9366 41.5224 31.168 42.4552 32.0834 41.762L35 39.5532L37.9166 41.762C38.832 42.4552 40.0634 41.5224 39.7138 40.4008L38.5998 36.8268L41.5164 34.6178C42.4316 33.9246 41.9612 32.4154 40.8298 32.4154H37.2248L36.1108 28.8412Z" fill="#F60C01"/>
</svg>
