<svg width="48" height="48" viewBox="0 0 48 48" fill="none" xmlns="http://www.w3.org/2000/svg">
<path d="M15 15.9996C18.3137 15.9996 21 13.3134 21 9.9998C21 6.6862 18.3137 4 15 4C11.6863 4 9 6.6862 9 9.9998C9 13.3134 11.6863 15.9996 15 15.9996ZM4 21.5356C4 19.583 5.58298 18 7.53568 18H17.0703C16.3896 19.1767 16 20.5428 16 22C16 24.3894 17.0475 26.5342 18.7084 28H16.5357C14.162 28 12.1373 29.494 11.3505 31.5928C8.35312 30.8602 6.49534 29.2256 5.40172 27.4054C3.99988 25.072 3.99998 22.671 4 22.2544V21.5356ZM32.0002 22C32.0002 20.5428 31.6108 19.1767 30.93 18H40.4644C42.417 18 44 19.583 44 21.5356V22.2544C44 22.671 44.0002 25.072 42.5982 27.4054C41.5046 29.2256 39.6468 30.8602 36.6494 31.5928C35.8626 29.494 33.838 28 31.4644 28H29.2918C30.9528 26.5342 32.0002 24.3894 32.0002 22ZM39 9.9998C39 13.3134 36.3138 15.9996 33 15.9996C29.6862 15.9996 27 13.3134 27 9.9998C27 6.6862 29.6862 4 33 4C36.3138 4 39 6.6862 39 9.9998ZM13 33.5356C13 31.583 14.583 30 16.5357 30H31.4644C33.417 30 35 31.583 35 33.5356V34.2544C35 34.671 35.0002 37.072 33.5982 39.4054C32.1156 41.8734 29.228 44 24 44C18.7719 44 15.8845 41.8734 14.4017 39.4054C12.9999 37.072 13 34.671 13 34.2544V33.5356ZM24 27.9996C27.3138 27.9996 30 25.3134 30 21.9998C30 18.6862 27.3138 16 24 16C20.6862 16 18 18.6862 18 21.9998C18 25.3134 20.6862 27.9996 24 27.9996Z" fill="#F60C01"/>
</svg>
