<svg width="21" height="16" viewBox="0 0 21 16" fill="none" xmlns="http://www.w3.org/2000/svg">
<path d="M10.5 0C11.355 0 12.232 0.0220001 13.082 0.0580001L14.086 0.106L15.047 0.163L15.947 0.224L16.769 0.288C17.661 0.356278 18.5004 0.736947 19.1395 1.36304C19.7786 1.98913 20.1764 2.82054 20.263 3.711L20.303 4.136L20.378 5.046C20.448 5.989 20.5 7.017 20.5 8C20.5 8.983 20.448 10.011 20.378 10.954L20.303 11.864C20.29 12.01 20.277 12.151 20.263 12.289C20.1764 13.1796 19.7784 14.0112 19.1391 14.6373C18.4999 15.2634 17.6602 15.6439 16.768 15.712L15.948 15.775L15.048 15.837L14.086 15.894L13.082 15.942C12.2218 15.9794 11.361 15.9987 10.5 16C9.63902 15.9987 8.77817 15.9794 7.918 15.942L6.914 15.894L5.953 15.837L5.053 15.775L4.231 15.712C3.33895 15.6437 2.49955 15.2631 1.86047 14.637C1.22139 14.0109 0.823574 13.1795 0.737 12.289L0.697 11.864L0.622 10.954C0.545538 9.97114 0.504844 8.98582 0.5 8C0.5 7.017 0.552 5.989 0.622 5.046L0.697 4.136C0.71 3.99 0.723 3.849 0.737 3.711C0.823541 2.8207 1.22122 1.98942 1.86009 1.36334C2.49897 0.737271 3.33813 0.356503 4.23 0.288L5.051 0.224L5.951 0.163L6.913 0.106L7.917 0.0580001C8.7775 0.0206329 9.63869 0.00129529 10.5 0ZM10.5 2C9.675 2 8.826 2.022 8 2.056L7.022 2.103L6.083 2.158L5.201 2.218L4.393 2.281C3.96833 2.31113 3.56804 2.49065 3.26309 2.78773C2.95814 3.08481 2.76822 3.48026 2.727 3.904C2.61 5.113 2.5 6.618 2.5 8C2.5 9.382 2.61 10.887 2.727 12.096C2.812 12.968 3.504 13.646 4.393 13.719L5.201 13.781L6.083 13.841L7.022 13.897L8 13.944C8.826 13.978 9.675 14 10.5 14C11.325 14 12.174 13.978 13 13.944L13.978 13.897L14.917 13.842L15.799 13.782L16.607 13.719C17.0317 13.6889 17.432 13.5094 17.7369 13.2123C18.0419 12.9152 18.2318 12.5197 18.273 12.096C18.39 10.887 18.5 9.382 18.5 8C18.5 6.618 18.39 5.113 18.273 3.904C18.2318 3.48026 18.0419 3.08481 17.7369 2.78773C17.432 2.49065 17.0317 2.31113 16.607 2.281L15.799 2.219L14.917 2.159L13.978 2.103L13 2.056C12.1671 2.02017 11.3336 2.0015 10.5 2ZM8.5 5.575C8.49994 5.47726 8.52375 5.38099 8.56937 5.29455C8.61498 5.20812 8.68103 5.13413 8.76175 5.07903C8.84248 5.02394 8.93544 4.98939 9.03256 4.97841C9.12968 4.96742 9.22801 4.98033 9.319 5.016L9.4 5.056L13.6 7.48C13.6836 7.52826 13.7544 7.59599 13.8063 7.67744C13.8581 7.75889 13.8896 7.85165 13.8979 7.94785C13.9062 8.04405 13.8912 8.14084 13.8542 8.23C13.8171 8.31916 13.7591 8.39806 13.685 8.46L13.6 8.52L9.4 10.945C9.31536 10.994 9.22003 11.0216 9.12229 11.0253C9.02456 11.0291 8.9274 11.0089 8.83926 10.9665C8.75112 10.9241 8.67468 10.8608 8.6166 10.7821C8.55851 10.7034 8.52054 10.6117 8.506 10.515L8.5 10.425V5.575Z" fill="#A1A3A8"/>
</svg>
